HIERARCHY
ROOT root     
{
	OFFSET 0.0000 0.0000 0.0000
	CHANNELS 6 Xposition Yposition Zposition Zrotation Yrotation Xrotation
	JOINT pelvis   
	{
		OFFSET 0.0000 0.0000 0.0000
		CHANNELS 3 Zrotation Yrotation Xrotation
		JOINT thorax   
		{
			OFFSET 0.0000 23.0750 -5.0000
			CHANNELS 3 Zrotation Yrotation Xrotation
			JOINT rclavicle
			{
				OFFSET 0.0000 28.0009 0.0000
				CHANNELS 3 Zrotation Yrotation Xrotation
				JOINT rhumerus 
				{
					OFFSET -18.5725 5.5939 0.0000
					CHANNELS 3 Zrotation Yrotation Xrotation
					JOINT rradius  
					{
						OFFSET -24.8459 0.0000 0.0000
						CHANNELS 3 Zrotation Yrotation Xrotation
						JOINT rhand    
						{
							OFFSET -24.5477 0.0000 0.0000
							CHANNELS 3 Zrotation Yrotation Xrotation
							End Site
							{
								OFFSET -8.1826 0.0000 0.0000
							}
						}
					}
				}
			}
			JOINT lclavicle
			{
				OFFSET 0.0000 28.0009 0.0000
				CHANNELS 3 Zrotation Yrotation Xrotation
				JOINT lhumerus 
				{
					OFFSET 18.5725 5.5939 0.0000
					CHANNELS 3 Zrotation Yrotation Xrotation
					JOINT lradius  
					{
						OFFSET 24.8459 0.0000 0.0000
						CHANNELS 3 Zrotation Yrotation Xrotation
						JOINT lhand    
						{
							OFFSET 24.5477 0.0000 0.0000
							CHANNELS 3 Zrotation Yrotation Xrotation
							End Site
							{
								OFFSET 8.1826 0.0000 0.0000
							}
						}
					}
				}
			}
			JOINT head     
			{
				OFFSET 0.0000 35.2030 0.0000
				CHANNELS 3 Zrotation Yrotation Xrotation
				End Site
				{
					OFFSET 0.0000 11.7343 0.0000
				}
			}
		}
		JOINT rfemur   
		{
			OFFSET -8.2817 0.0000 0.0000
			CHANNELS 3 Zrotation Yrotation Xrotation
			JOINT rtibia   
			{
				OFFSET 0.0000 -43.3627 0.0000
				CHANNELS 3 Zrotation Yrotation Xrotation
				JOINT rfoot    
				{
					OFFSET 0.0000 -38.2947 0.0000
					CHANNELS 3 Zrotation Yrotation Xrotation
					JOINT rtoes    
					{
						OFFSET 0.0000 0.0000 16.6054
						CHANNELS 3 Zrotation Yrotation Xrotation
						End Site
						{
							OFFSET 0.0000 0.0000 5.5351
						}
					}
				}
			}
		}
		JOINT lfemur   
		{
			OFFSET 8.2817 0.0000 0.0000
			CHANNELS 3 Zrotation Yrotation Xrotation
			JOINT ltibia   
			{
				OFFSET 0.0000 -43.3627 0.0000
				CHANNELS 3 Zrotation Yrotation Xrotation
				JOINT lfoot    
				{
					OFFSET 0.0000 -38.2947 0.0000
					CHANNELS 3 Zrotation Yrotation Xrotation
					JOINT ltoes    
					{
						OFFSET 0.0000 0.0000 16.6054
						CHANNELS 3 Zrotation Yrotation Xrotation
						End Site
						{
							OFFSET 0.0000 0.0000 5.5351
						}
					}
				}
			}
		}
	}
}
MOTION
Frames: 17
Frame Time: .0333333
23.862 82.988 11.695 18.8807 -70.1637 10.3433 0 -0 0 4.08054 16.2344 5.87448 -15.4747 -7.53978 -1.48576e-05 -34.554 51.4095 -141.717 0 2.83642 0 -22.0473 19.2284 -3.78001 -11.3264 13.619 -5.66128e-05 -61.0506 -16.3069 25.9801 -180 -50.2076 180 10.144 -3.17791 -0.282109 5.36173 -13.7637 -33.9003 8.10328 -45.3765 -51.6653 -0 -0 36.3979 -1.34485e-07 1.056 6.03505 0.111 1.11486e-07 -72.793 -14.4406 2.44821 -48.1506 -0 -0 35.7424 -1.58677e-08 5.82376 0.0149999 0.00150006 2.3281e-08 -37.6843 
23.924 82.967 11.651 19.0775 -69.6438 10.3796 0 -0 0 4.04273 16.4744 5.85957 -17.1258 -8.55083 2.73014e-05 -35.2228 50.2658 -145.492 0 1.0159 0 -24.5833 18.4216 -4.04696 -11.4007 14.272 -8.35327e-05 -61.1578 -16.2311 26.0458 -180 -50.0203 180 9.82119 -3.35394 -0.288198 5.59538 -13.8957 -34.1239 8.57294 -46.0208 -52.2726 -0 -0 36.6048 1.24511e-07 1.26769 5.86541 0.1296 -5.52389e-07 -72.7504 -14.5176 2.07803 -48.3231 -0 -0 35.6787 2.08317e-07 5.60207 0.170305 0.0167002 5.89001e-08 -37.7529 
23.988 82.94 11.602 19.1612 -69.1243 10.5253 0 -0 0 4.03648 16.5769 5.86107 -18.4514 -9.69932 6.08937e-06 -35.9638 49.7084 -147.957 0 0.179703 0 -27.2752 17.1706 -4.19556 -11.4863 14.9685 -2.64519e-05 -61.3302 -16.0393 26.0822 -180 -49.8168 180 9.449 -3.56037 -0.294303 5.86569 -13.9184 -34.2988 9.06965 -46.6237 -52.8835 -0 -0 36.8233 2.02608e-06 1.44534 5.69597 0.143497 -5.40758e-07 -72.7118 -14.5693 1.73395 -48.5218 -0 -0 35.6532 -1.16823e-07 5.36026 0.2965 0.0278006 2.77596e-07 -37.8224 
24.05 82.91 11.547 19.1406 -68.6246 10.7665 0 -0 0 4.08343 16.5401 5.89461 -19.4721 -11.0144 -5.177e-05 -37.0577 49.7383 -150.881 8.4031e-10 0.1595 6.03714e-07 -29.4809 16.231 -4.29713 -11.6256 15.6968 -9.4967e-05 -61.525 -15.7169 26.0457 -180 -49.5818 180 9.03854 -3.79115 -0.299801 6.14402 -13.8301 -34.4012 9.57416 -47.1577 -53.4689 -0 -0 37.0379 1.20335e-06 1.57604 5.54004 0.152203 9.83918e-07 -72.6808 -14.5941 1.43098 -48.7369 -0 -0 35.6568 -2.57939e-07 5.10378 0.399407 0.0357003 1.04164e-07 -37.8964 
24.109 82.882 11.487 19.0206 -68.1554 11.0936 0 -0 0 4.20236 16.3713 5.96301 -20.2517 -12.4847 7.67992e-05 -38.8092 49.9889 -155.269 0 0.130405 0 -30.9199 16.4665 -4.58334 -11.8547 16.4226 -0.000135773 -61.6993 -15.2433 25.8902 -180 -49.3057 180 8.6091 -4.03553 -0.303901 6.39943 -13.6397 -34.4032 10.067 -47.6022 -54.0057 -0 -0 37.2343 -3.90236e-08 1.65017 5.40836 0.1556 -5.90147e-07 -72.6634 -14.5909 1.17997 -48.963 -0 -0 35.6815 2.39939e-07 4.84023 0.483595 0.0409001 -6.113e-07 -37.9811 
24.165 82.855 11.421 18.8177 -67.7388 11.4838 0 -0 0 4.3724 16.1108 6.06336 -20.6865 -13.9754 -2.43404e-05 -41.1004 50.4762 -159.741 0 0.615706 0 -31.7058 17.0116 -4.86373 -12.1274 17.0941 -4.49294e-05 -61.9024 -14.5878 25.6298 -180 -48.9994 180 8.16939 -4.29791 -0.307105 6.64503 -13.3848 -34.2808 10.5234 -47.9373 -54.4785 -0 -0 37.4115 -4.0553e-07 1.65941 5.30188 0.153402 7.69001e-07 -72.6555 -14.5601 0.983919 -49.1961 -0 -0 35.727 -4.61559e-07 4.5807 0.548497 0.0439 1.712e-08 -38.0739 
24.219 82.829 11.352 18.5454 -67.3802 11.9232 0 -0 0 4.58214 15.793 6.18378 -20.7024 -15.4171 4.73278e-05 -44.1486 50.8722 -165.448 -0 1.1117 -0 -31.4214 18.6888 -5.30034 -12.4197 17.6539 -0.000103204 -62.1564 -13.7241 25.2604 -180 -48.6722 180 7.73845 -4.57285 -0.309399 6.87754 -13.1032 -34.0088 10.9329 -48.1557 -54.88 -0 -0 37.5742 2.03554e-06 1.60083 5.2218 0.145702 1.25592e-06 -72.6519 -14.5043 0.841465 -49.4368 -0 -0 35.7934 1.85023e-09 4.33666 0.594896 0.0451004 1.18087e-07 -38.1713 
24.279 82.799 11.279 18.2201 -67.0805 12.3974 0 -0 0 4.79103 15.4744 6.32057 -20.2407 -16.6223 6.39926e-05 -47.6203 51.1399 -169.416 1.1273e-08 2.13841 6.04022e-07 -30.6767 19.743 -5.46546 -12.6452 18.0638 0.000106879 -62.549 -12.6489 24.839 -180 -48.3566 180 7.32991 -4.86177 -0.311599 7.12922 -12.8436 -33.583 11.2818 -48.2549 -55.2184 -0 -0 37.7348 -1.24536e-06 1.47506 5.15714 0.1326 5.73233e-07 -72.644 -14.4251 0.743999 -49.6926 -0 -0 35.8917 2.34027e-07 4.12201 0.615893 0.0444011 1.79427e-07 -38.2614 
24.345 82.767 11.202 17.8617 -66.85 12.8846 0 -0 0 4.99159 15.1644 6.47381 -19.3441 -17.5892 -0.000114339 -51.5449 50.8324 -173.252 0 2.72984 0 -29.0778 21.3343 -5.59331 -12.8084 18.319 4.23975e-05 -63.063 -11.3949 24.3635 -180 -48.0622 180 6.97585 -5.14857 -0.314003 7.38397 -12.6176 -32.9972 11.5624 -48.2321 -55.4936 -0 -0 37.8964 2.16249e-06 1.28415 5.10736 0.114301 -6.03783e-07 -72.6246 -14.3258 0.68517 -49.9604 -0 -0 36.0181 -5.91773e-07 3.94725 0.617208 0.0425997 3.00608e-07 -38.3397 
24.419 82.73 11.123 17.4828 -66.6865 13.3752 0 -0 0 5.1744 14.8832 6.64388 -18.1696 -18.2419 -0.000174597 -55.244 50.3702 -174.603 0 3.83242 0 -27.2922 21.994 -5.40214 -12.9014 18.4188 5.03238e-05 -63.6943 -10.0106 23.8521 -180 -47.8099 180 6.70648 -5.41639 -0.317592 7.63267 -12.447 -32.2584 11.7765 -48.103 -55.7174 -0 -0 38.0659 -8.41752e-07 1.039 5.06558 0.0917 -1.28847e-07 -72.5899 -14.2093 0.652952 -50.2437 -0 -0 36.1736 -2.95605e-07 3.82227 0.597495 0.0398996 2.87957e-07 -38.4018 
24.5 82.689 11.043 17.0998 -66.5882 13.8528 0 -0 0 5.34416 14.6271 6.83336 -16.803 -18.6388 -0.000174753 -58.7034 49.5761 -174.865 2.53534e-08 4.79681 6.05313e-07 -25.0864 22.6814 -5.1098 -12.9532 18.386 4.57729e-05 -64.3917 -8.56158 23.2982 -180 -47.6105 180 6.55762 -5.64347 -0.323592 7.84564 -12.3263 -31.3743 11.9291 -47.8797 -55.8991 -0 -0 38.2415 9.2829e-08 0.752195 5.03076 0.0660009 -4.65975e-07 -72.5394 -14.08 0.639095 -50.5355 -0 -0 36.3507 -1.0208e-07 3.75198 0.562906 0.0368996 -7.68451e-08 -38.4449 
24.59 82.645 10.961 16.7325 -66.5453 14.3085 0 -0 0 5.49706 14.3924 7.04544 -15.3863 -18.7922 -3.41349e-06 -61.5608 48.8265 -173.043 0 6.24854 0 -22.9998 22.6763 -4.67215 -12.9778 18.2484 -0.000198779 -65.1208 -7.11776 22.7187 -180 -47.4795 180 6.5552 -5.81365 -0.333205 8.00552 -12.2511 -30.367 12.0309 -47.579 -56.0561 -0 -0 38.4242 -5.68166e-08 0.438696 4.99761 0.0381997 -1.03442e-07 -72.4718 -13.9398 0.634568 -50.8358 -0 -0 36.544 6.08854e-08 3.73938 0.516898 0.0338007 1.46233e-07 -38.4675 
24.689 82.596 10.878 16.3892 -66.5586 14.7298 0 -0 0 5.62201 14.1823 7.27821 -13.9801 -18.7097 -2.30037e-05 -63.5762 48.2772 -168.719 0 8.42053 0 -21.4886 21.7849 -4.18238 -12.9657 18.0274 0.000116413 -65.862 -5.7366 22.1402 -180 -47.4266 180 6.70772 -5.91964 -0.347198 8.10748 -12.2172 -29.262 12.0934 -47.2255 -56.2049 -0 -0 38.6213 -2.31611e-07 0.115295 4.96088 0.00999999 8.9936e-08 -72.3865 -13.7963 0.630241 -51.1448 -0 -0 36.7525 -3.65571e-07 3.78328 0.461801 0.0305007 2.042e-07 -38.4675 
24.796 82.543 10.795 16.0875 -66.6158 15.1079 0 -0 0 5.71599 13.9912 7.53414 -12.7052 -18.4282 2.23594e-05 -64.348 48.0941 -161.645 0 11.6465 0 -20.8695 19.8034 -3.68247 -12.9271 17.7594 -4.61e-05 -66.5813 -4.47523 21.5844 -180 -47.4594 180 7.01931 -5.95245 -0.365405 8.14219 -12.2143 -28.0926 12.1335 -46.8378 -56.3669 -0 -0 38.8352 2.22929e-07 -0.201397 4.91484 -0.0172998 -8.62153e-08 -72.2819 -13.6535 0.621743 -51.4622 -0 -0 36.9727 -3.30438e-07 3.87888 0.399399 0.0271004 1.88612e-07 -38.4432 
24.913 82.484 10.711 15.8323 -66.7117 15.4428 0 -0 0 5.76924 13.8176 7.80766 -11.5846 -17.9573 -5.03227e-05 -63.6289 48.0838 -152.264 0 15.8307 0 -21.1246 16.8644 -3.1667 -12.849 17.4536 -1.56877e-06 -67.2602 -3.35982 21.0729 -180 -47.5719 180 7.47141 -5.91605 -0.386598 8.11369 -12.2336 -26.887 12.1612 -46.4348 -56.5538 -0 -0 39.0687 1.75334e-09 -0.495997 4.8561 -0.0420003 -2.37308e-07 -72.161 -13.5168 0.606947 -51.7891 -0 -0 37.2035 -3.12895e-07 4.01842 0.332097 0.0232996 -1.0579e-07 -38.3955 
25.035 82.423 10.627 15.6387 -66.8453 15.7194 0 -0 0 5.79202 13.6427 8.10349 -10.6442 -17.4362 7.30527e-06 -61.8634 47.9684 -142.588 0 20.4123 0 -21.6899 13.7048 -2.63766 -12.7693 17.1384 5.54262e-05 -67.836 -2.42656 20.6042 -180 -47.7511 180 8.04716 -5.80644 -0.4088 8.00658 -12.2546 -25.6781 12.1878 -46.0304 -56.7759 -0 -0 39.3153 3.53025e-07 -0.756399 4.78496 -0.0630995 5.93882e-07 -72.0287 -13.3944 0.589348 -52.1221 -0 -0 37.4359 -2.12136e-08 4.19076 0.264894 0.0193998 -8.56686e-08 -38.3316 
25.162 82.359 10.543 15.5076 -67.006 15.9426 0 -0 0 5.78499 13.4571 8.4202 -9.84044 -16.9495 8.12079e-06 -59.6381 47.6433 -133.777 1.44345e-07 25.0247 6.50433e-07 -22.3051 10.7315 -2.12164 -12.695 16.8248 6.44661e-05 -68.2791 -1.67924 20.184 -180 -47.9767 180 8.70907 -5.63219 -0.429189 7.82484 -12.2608 -24.4953 12.2216 -45.6375 -57.0382 -0 -0 39.5742 -5.30205e-07 -0.974102 4.70218 -0.0798991 1.6743e-07 -71.8883 -13.2925 0.573779 -52.4605 -0 -0 37.6663 1.30021e-07 4.38376 0.1999 0.0153003 2.60066e-07 -38.2559 
